<?xml version="1.0" encoding="UTF-8"?>
<svg width="20px" height="20px" viewBox="0 0 20 20" version="1.1" xmlns="http://www.w3.org/2000/svg" xmlns:xlink="http://www.w3.org/1999/xlink">
    <!-- Generator: Sketch 47.1 (45422) - http://www.bohemiancoding.com/sketch -->
    <title>search</title>
    <desc>Created with Sketch.</desc>
    <defs></defs>
    <g id="Welcome" stroke="none" stroke-width="1" fill="none" fill-rule="evenodd">
        <g id="Places-search-and-pagination" transform="translate(-973.000000, -254.000000)" fill-rule="nonzero" fill="#000000">
            <g id="search" transform="translate(973.000000, 254.000000)">
                <path d="M19.8861538,19.3483019 L14.1711538,13.5169811 C15.6288462,12.0826415 16.5319231,10.105283 16.5319231,7.9245283 C16.5319231,3.55471698 12.9088462,0 8.455,0 C4.00115385,0 0.378076923,3.55471698 0.378076923,7.9245283 C0.378076923,12.2943396 4.00115385,15.8490566 8.455,15.8490566 C10.41,15.8490566 12.2042308,15.1633962 13.6026923,14.0256604 L19.3315385,19.8713208 C19.4069231,19.9486792 19.5076923,19.9871698 19.6088462,19.9871698 C19.705,19.9871698 19.8007692,19.9520755 19.8753846,19.8818868 C20.0284615,19.7373585 20.0330769,19.4984906 19.8861538,19.3483019 Z M8.455,15.0943396 C4.42538462,15.0943396 1.14730769,11.8781132 1.14730769,7.9245283 C1.14730769,3.9709434 4.42538462,0.754716981 8.455,0.754716981 C12.4846154,0.754716981 15.7626923,3.9709434 15.7626923,7.9245283 C15.7626923,11.8781132 12.4842308,15.0943396 8.455,15.0943396 Z" id="Shape"></path>
            </g>
        </g>
    </g>
</svg>